# MagicaVoxel @ Ephtracy

# group
o 

# material
mtllib target.mtl
usemtl palette

# normals
vn -1 0 0
vn 1 0 0
vn 0 0 1
vn 0 0 -1
vn 0 -1 0
vn 0 1 0

# texcoords
vt 0.0214844 0.5
vt 0.841797 0.5
vt 0.919922 0.5
vt 0.958984 0.5
vt 0.986328 0.5
vt 0.994141 0.5

# verts
v -2 0 2
v -2 0 -2
v -2 4 2
v -2 4 -2
v 2 0 2
v 2 0 -2
v 2 4 2
v 2 4 -2
v -2 0 2
v -2 4 2
v -1.8 1.6 2
v -1.8 2.5 2
v -1.7 1.3 2
v -1.7 1.6 2
v -1.7 2.5 2
v -1.7 2.8 2
v -1.6 1.1 2
v -1.6 1.3 2
v -1.6 2.8 2
v -1.6 3 2
v -1.5 1 2
v -1.5 1.1 2
v -1.5 1.7 2
v -1.5 2.4 2
v -1.5 3 2
v -1.5 3.1 2
v -1.4 0.8 2
v -1.4 1 2
v -1.4 1.4 2
v -1.4 1.7 2
v -1.4 2.4 2
v -1.4 2.7 2
v -1.4 3.1 2
v -1.4 3.3 2
v -1.3 0.7 2
v -1.3 0.8 2
v -1.3 1.2 2
v -1.3 1.4 2
v -1.3 2.7 2
v -1.3 2.9 2
v -1.3 3.3 2
v -1.3 3.4 2
v -1.2 0.6 2
v -1.2 0.7 2
v -1.2 1.1 2
v -1.2 1.2 2
v -1.2 1.7 2
v -1.2 2.4 2
v -1.2 2.9 2
v -1.2 3 2
v -1.2 3.4 2
v -1.2 3.5 2
v -1.1 1 2
v -1.1 1.1 2
v -1.1 1.5 2
v -1.1 1.7 2
v -1.1 2.4 2
v -1.1 2.6 2
v -1.1 3 2
v -1.1 3.1 2
v -1 0.5 2
v -1 0.6 2
v -1 0.9 2
v -1 1 2
v -1 1.3 2
v -1 1.5 2
v -1 2.6 2
v -1 2.8 2
v -1 3.1 2
v -1 3.2 2
v -1 3.5 2
v -1 3.6 2
v -0.9 0.4 2
v -0.9 0.5 2
v -0.9 0.8 2
v -0.9 0.9 2
v -0.9 1.2 2
v -0.9 1.3 2
v -0.9 2.8 2
v -0.9 2.9 2
v -0.9 3.2 2
v -0.9 3.3 2
v -0.9 3.6 2
v -0.9 3.7 2
v -0.8 0.7 2
v -0.8 0.8 2
v -0.8 1.1 2
v -0.8 1.2 2
v -0.8 1.8 2
v -0.8 2.3 2
v -0.8 2.9 2
v -0.8 3 2
v -0.8 3.3 2
v -0.8 3.4 2
v -0.7 0.3 2
v -0.7 0.4 2
v -0.7 1 2
v -0.7 1.1 2
v -0.7 1.6 2
v -0.7 1.8 2
v -0.7 2.3 2
v -0.7 2.5 2
v -0.7 3 2
v -0.7 3.1 2
v -0.7 3.7 2
v -0.7 3.8 2
v -0.6 0.6 2
v -0.6 0.7 2
v -0.6 1.4 2
v -0.6 1.6 2
v -0.6 2.5 2
v -0.6 2.7 2
v -0.6 3.4 2
v -0.6 3.5 2
v -0.5 0.9 2
v -0.5 1 2
v -0.5 1.8 2
v -0.5 2.3 2
v -0.5 3.1 2
v -0.5 3.2 2
v -0.4 0.2 2
v -0.4 0.3 2
v -0.4 1.3 2
v -0.4 1.4 2
v -0.4 1.7 2
v -0.4 1.8 2
v -0.4 2.3 2
v -0.4 2.4 2
v -0.4 2.7 2
v -0.4 2.8 2
v -0.4 3.8 2
v -0.4 3.9 2
v -0.3 0.5 2
v -0.3 0.6 2
v -0.3 0.8 2
v -0.3 0.9 2
v -0.3 1.6 2
v -0.3 1.7 2
v -0.3 2.4 2
v -0.3 2.5 2
v -0.3 3.2 2
v -0.3 3.3 2
v -0.3 3.5 2
v -0.3 3.6 2
v -0.2 1.2 2
v -0.2 1.3 2
v -0.2 1.5 2
v -0.2 1.6 2
v -0.2 2.5 2
v -0.2 2.6 2
v -0.2 2.8 2
v -0.2 2.9 2
v -0.0999999 2 2
v -0.0999999 2.1 2
v 2.38419e-07 1.9 2
v 2.38419e-07 2 2
v 2.38419e-07 2.1 2
v 2.38419e-07 2.2 2
v 0.1 1.9 2
v 0.1 2 2
v 0.1 2.1 2
v 0.1 2.2 2
v 0.2 2 2
v 0.2 2.1 2
v 0.3 1.2 2
v 0.3 1.3 2
v 0.3 1.5 2
v 0.3 1.6 2
v 0.3 2.5 2
v 0.3 2.6 2
v 0.3 2.8 2
v 0.3 2.9 2
v 0.4 0.5 2
v 0.4 0.6 2
v 0.4 0.8 2
v 0.4 0.9 2
v 0.4 1.6 2
v 0.4 1.7 2
v 0.4 2.4 2
v 0.4 2.5 2
v 0.4 3.2 2
v 0.4 3.3 2
v 0.4 3.5 2
v 0.4 3.6 2
v 0.5 0.2 2
v 0.5 0.3 2
v 0.5 1.3 2
v 0.5 1.4 2
v 0.5 1.7 2
v 0.5 1.8 2
v 0.5 2.3 2
v 0.5 2.4 2
v 0.5 2.7 2
v 0.5 2.8 2
v 0.5 3.8 2
v 0.5 3.9 2
v 0.6 0.9 2
v 0.6 1 2
v 0.6 1.8 2
v 0.6 2.3 2
v 0.6 3.1 2
v 0.6 3.2 2
v 0.7 0.6 2
v 0.7 0.7 2
v 0.7 1.4 2
v 0.7 1.6 2
v 0.7 2.5 2
v 0.7 2.7 2
v 0.7 3.4 2
v 0.7 3.5 2
v 0.8 0.3 2
v 0.8 0.4 2
v 0.8 1 2
v 0.8 1.1 2
v 0.8 1.6 2
v 0.8 1.8 2
v 0.8 2.3 2
v 0.8 2.5 2
v 0.8 3 2
v 0.8 3.1 2
v 0.8 3.7 2
v 0.8 3.8 2
v 0.9 0.7 2
v 0.9 0.8 2
v 0.9 1.1 2
v 0.9 1.2 2
v 0.9 1.8 2
v 0.9 2.3 2
v 0.9 2.9 2
v 0.9 3 2
v 0.9 3.3 2
v 0.9 3.4 2
v 1 0.4 2
v 1 0.5 2
v 1 0.8 2
v 1 0.9 2
v 1 1.2 2
v 1 1.3 2
v 1 2.8 2
v 1 2.9 2
v 1 3.2 2
v 1 3.3 2
v 1 3.6 2
v 1 3.7 2
v 1.1 0.5 2
v 1.1 0.6 2
v 1.1 0.9 2
v 1.1 1 2
v 1.1 1.3 2
v 1.1 1.5 2
v 1.1 2.6 2
v 1.1 2.8 2
v 1.1 3.1 2
v 1.1 3.2 2
v 1.1 3.5 2
v 1.1 3.6 2
v 1.2 1 2
v 1.2 1.1 2
v 1.2 1.5 2
v 1.2 1.7 2
v 1.2 2.4 2
v 1.2 2.6 2
v 1.2 3 2
v 1.2 3.1 2
v 1.3 0.6 2
v 1.3 0.7 2
v 1.3 1.1 2
v 1.3 1.2 2
v 1.3 1.7 2
v 1.3 2.4 2
v 1.3 2.9 2
v 1.3 3 2
v 1.3 3.4 2
v 1.3 3.5 2
v 1.4 0.7 2
v 1.4 0.8 2
v 1.4 1.2 2
v 1.4 1.4 2
v 1.4 2.7 2
v 1.4 2.9 2
v 1.4 3.3 2
v 1.4 3.4 2
v 1.5 0.8 2
v 1.5 1 2
v 1.5 1.4 2
v 1.5 1.7 2
v 1.5 2.4 2
v 1.5 2.7 2
v 1.5 3.1 2
v 1.5 3.3 2
v 1.6 1 2
v 1.6 1.1 2
v 1.6 1.7 2
v 1.6 2.4 2
v 1.6 3 2
v 1.6 3.1 2
v 1.7 1.1 2
v 1.7 1.3 2
v 1.7 2.8 2
v 1.7 3 2
v 1.8 1.3 2
v 1.8 1.6 2
v 1.8 2.5 2
v 1.8 2.8 2
v 1.9 1.6 2
v 1.9 2.5 2
v 2 0 2
v 2 4 2
v -2 0 -2
v -2 4 -2
v 2 0 -2
v 2 4 -2
v -2 0 2
v 2 0 2
v -2 0 -2
v 2 0 -2
v -2 4 2
v 2 4 2
v -2 4 -2
v 2 4 -2

# faces
f 3/5/1 2/5/1 1/5/1
f 4/5/1 2/5/1 3/5/1
f 5/5/2 6/5/2 7/5/2
f 7/5/2 6/5/2 8/5/2
f 11/5/3 10/5/3 9/5/3
f 12/5/3 10/5/3 11/5/3
f 13/5/3 11/5/3 9/5/3
f 14/4/3 12/4/3 11/4/3
f 14/5/3 11/5/3 13/5/3
f 15/5/3 10/5/3 12/5/3
f 15/4/3 12/4/3 14/4/3
f 16/5/3 10/5/3 15/5/3
f 17/5/3 13/5/3 9/5/3
f 18/4/3 14/4/3 13/4/3
f 18/5/3 13/5/3 17/5/3
f 18/4/3 15/4/3 14/4/3
f 18/4/3 16/4/3 15/4/3
f 19/5/3 10/5/3 16/5/3
f 19/4/3 16/4/3 18/4/3
f 20/5/3 10/5/3 19/5/3
f 21/5/3 17/5/3 9/5/3
f 22/4/3 18/4/3 17/4/3
f 22/5/3 17/5/3 21/5/3
f 22/4/3 19/4/3 18/4/3
f 22/4/3 20/4/3 19/4/3
f 23/4/3 20/4/3 22/4/3
f 24/4/3 20/4/3 23/4/3
f 25/5/3 10/5/3 20/5/3
f 25/4/3 20/4/3 24/4/3
f 26/5/3 10/5/3 25/5/3
f 27/5/3 21/5/3 9/5/3
f 28/4/3 22/4/3 21/4/3
f 28/5/3 21/5/3 27/5/3
f 28/4/3 23/4/3 22/4/3
f 29/4/3 23/4/3 28/4/3
f 30/6/3 24/6/3 23/6/3
f 30/4/3 23/4/3 29/4/3
f 31/4/3 26/4/3 25/4/3
f 31/6/3 24/6/3 30/6/3
f 31/4/3 25/4/3 24/4/3
f 32/4/3 26/4/3 31/4/3
f 33/5/3 10/5/3 26/5/3
f 33/4/3 26/4/3 32/4/3
f 34/5/3 10/5/3 33/5/3
f 35/5/3 27/5/3 9/5/3
f 36/4/3 29/4/3 28/4/3
f 36/5/3 27/5/3 35/5/3
f 36/4/3 28/4/3 27/4/3
f 37/4/3 29/4/3 36/4/3
f 38/6/3 32/6/3 31/6/3
f 38/4/3 29/4/3 37/4/3
f 38/6/3 30/6/3 29/6/3
f 38/6/3 31/6/3 30/6/3
f 39/4/3 34/4/3 33/4/3
f 39/6/3 32/6/3 38/6/3
f 39/4/3 33/4/3 32/4/3
f 40/4/3 34/4/3 39/4/3
f 41/5/3 10/5/3 34/5/3
f 41/4/3 34/4/3 40/4/3
f 42/5/3 10/5/3 41/5/3
f 43/5/3 35/5/3 9/5/3
f 44/4/3 37/4/3 36/4/3
f 44/5/3 35/5/3 43/5/3
f 44/4/3 36/4/3 35/4/3
f 45/4/3 37/4/3 44/4/3
f 46/6/3 40/6/3 39/6/3
f 46/4/3 37/4/3 45/4/3
f 46/6/3 38/6/3 37/6/3
f 46/6/3 39/6/3 38/6/3
f 47/6/3 40/6/3 46/6/3
f 48/6/3 40/6/3 47/6/3
f 49/4/3 42/4/3 41/4/3
f 49/6/3 40/6/3 48/6/3
f 49/4/3 41/4/3 40/4/3
f 50/4/3 42/4/3 49/4/3
f 51/5/3 10/5/3 42/5/3
f 51/4/3 42/4/3 50/4/3
f 52/5/3 10/5/3 51/5/3
f 53/4/3 45/4/3 44/4/3
f 53/4/3 44/4/3 43/4/3
f 54/6/3 47/6/3 46/6/3
f 54/4/3 45/4/3 53/4/3
f 54/6/3 46/6/3 45/6/3
f 55/6/3 47/6/3 54/6/3
f 56/3/3 48/3/3 47/3/3
f 56/6/3 47/6/3 55/6/3
f 57/6/3 50/6/3 49/6/3
f 57/3/3 48/3/3 56/3/3
f 57/6/3 49/6/3 48/6/3
f 58/6/3 50/6/3 57/6/3
f 59/4/3 52/4/3 51/4/3
f 59/6/3 50/6/3 58/6/3
f 59/4/3 51/4/3 50/4/3
f 60/4/3 52/4/3 59/4/3
f 61/5/3 43/5/3 9/5/3
f 62/4/3 53/4/3 43/4/3
f 62/5/3 43/5/3 61/5/3
f 63/4/3 53/4/3 62/4/3
f 64/6/3 55/6/3 54/6/3
f 64/4/3 53/4/3 63/4/3
f 64/6/3 54/6/3 53/6/3
f 65/6/3 55/6/3 64/6/3
f 66/3/3 56/3/3 55/3/3
f 66/6/3 55/6/3 65/6/3
f 66/3/3 58/3/3 57/3/3
f 66/3/3 57/3/3 56/3/3
f 67/6/3 60/6/3 59/6/3
f 67/3/3 58/3/3 66/3/3
f 67/6/3 59/6/3 58/6/3
f 68/6/3 60/6/3 67/6/3
f 69/4/3 52/4/3 60/4/3
f 69/6/3 60/6/3 68/6/3
f 70/4/3 52/4/3 69/4/3
f 71/5/3 10/5/3 52/5/3
f 71/4/3 52/4/3 70/4/3
f 72/5/3 10/5/3 71/5/3
f 73/5/3 61/5/3 9/5/3
f 74/4/3 63/4/3 62/4/3
f 74/5/3 61/5/3 73/5/3
f 74/4/3 62/4/3 61/4/3
f 75/4/3 63/4/3 74/4/3
f 76/6/3 65/6/3 64/6/3
f 76/4/3 63/4/3 75/4/3
f 76/6/3 64/6/3 63/6/3
f 77/6/3 65/6/3 76/6/3
f 78/3/3 68/3/3 67/3/3
f 78/6/3 65/6/3 77/6/3
f 78/3/3 66/3/3 65/3/3
f 78/3/3 67/3/3 66/3/3
f 79/6/3 70/6/3 69/6/3
f 79/3/3 68/3/3 78/3/3
f 79/6/3 69/6/3 68/6/3
f 80/6/3 70/6/3 79/6/3
f 81/4/3 72/4/3 71/4/3
f 81/6/3 70/6/3 80/6/3
f 81/4/3 71/4/3 70/4/3
f 82/4/3 72/4/3 81/4/3
f 83/5/3 10/5/3 72/5/3
f 83/4/3 72/4/3 82/4/3
f 84/5/3 10/5/3 83/5/3
f 85/4/3 75/4/3 74/4/3
f 85/4/3 74/4/3 73/4/3
f 86/6/3 77/6/3 76/6/3
f 86/4/3 75/4/3 85/4/3
f 86/6/3 76/6/3 75/6/3
f 87/6/3 77/6/3 86/6/3
f 88/3/3 78/3/3 77/3/3
f 88/6/3 77/6/3 87/6/3
f 88/3/3 80/3/3 79/3/3
f 88/3/3 79/3/3 78/3/3
f 89/3/3 80/3/3 88/3/3
f 90/3/3 80/3/3 89/3/3
f 91/6/3 82/6/3 81/6/3
f 91/3/3 80/3/3 90/3/3
f 91/6/3 81/6/3 80/6/3
f 92/6/3 82/6/3 91/6/3
f 93/4/3 84/4/3 83/4/3
f 93/6/3 82/6/3 92/6/3
f 93/4/3 83/4/3 82/4/3
f 94/4/3 84/4/3 93/4/3
f 95/5/3 73/5/3 9/5/3
f 96/4/3 85/4/3 73/4/3
f 96/5/3 73/5/3 95/5/3
f 97/6/3 87/6/3 86/6/3
f 97/6/3 86/6/3 85/6/3
f 98/3/3 89/3/3 88/3/3
f 98/6/3 87/6/3 97/6/3
f 98/3/3 88/3/3 87/3/3
f 99/3/3 89/3/3 98/3/3
f 100/2/3 90/2/3 89/2/3
f 100/3/3 89/3/3 99/3/3
f 101/3/3 92/3/3 91/3/3
f 101/2/3 90/2/3 100/2/3
f 101/3/3 91/3/3 90/3/3
f 102/3/3 92/3/3 101/3/3
f 103/6/3 94/6/3 93/6/3
f 103/3/3 92/3/3 102/3/3
f 103/6/3 93/6/3 92/6/3
f 104/6/3 94/6/3 103/6/3
f 105/5/3 10/5/3 84/5/3
f 105/4/3 84/4/3 94/4/3
f 106/5/3 10/5/3 105/5/3
f 107/4/3 85/4/3 96/4/3
f 107/4/3 96/4/3 95/4/3
f 108/6/3 97/6/3 85/6/3
f 108/4/3 85/4/3 107/4/3
f 109/3/3 99/3/3 98/3/3
f 109/3/3 98/3/3 97/3/3
f 110/2/3 100/2/3 99/2/3
f 110/3/3 99/3/3 109/3/3
f 110/2/3 102/2/3 101/2/3
f 110/2/3 101/2/3 100/2/3
f 111/3/3 104/3/3 103/3/3
f 111/2/3 102/2/3 110/2/3
f 111/3/3 103/3/3 102/3/3
f 112/3/3 104/3/3 111/3/3
f 113/6/3 94/6/3 104/6/3
f 113/4/3 106/4/3 105/4/3
f 113/4/3 105/4/3 94/4/3
f 114/4/3 106/4/3 113/4/3
f 115/6/3 97/6/3 108/6/3
f 115/6/3 108/6/3 107/6/3
f 116/3/3 109/3/3 97/3/3
f 116/6/3 97/6/3 115/6/3
f 117/2/3 110/2/3 109/2/3
f 117/2/3 112/2/3 111/2/3
f 117/2/3 111/2/3 110/2/3
f 118/2/3 112/2/3 117/2/3
f 119/3/3 104/3/3 112/3/3
f 119/6/3 114/6/3 113/6/3
f 119/6/3 113/6/3 104/6/3
f 120/6/3 114/6/3 119/6/3
f 121/5/3 95/5/3 9/5/3
f 122/4/3 107/4/3 95/4/3
f 122/5/3 95/5/3 121/5/3
f 123/3/3 109/3/3 116/3/3
f 123/3/3 116/3/3 115/3/3
f 124/2/3 117/2/3 109/2/3
f 124/3/3 109/3/3 123/3/3
f 125/2/3 117/2/3 124/2/3
f 126/1/3 118/1/3 117/1/3
f 126/2/3 117/2/3 125/2/3
f 127/2/3 112/2/3 118/2/3
f 127/1/3 118/1/3 126/1/3
f 128/2/3 112/2/3 127/2/3
f 129/3/3 119/3/3 112/3/3
f 129/2/3 112/2/3 128/2/3
f 129/3/3 120/3/3 119/3/3
f 130/3/3 120/3/3 129/3/3
f 131/5/3 10/5/3 106/5/3
f 131/4/3 106/4/3 114/4/3
f 132/5/3 10/5/3 131/5/3
f 133/4/3 107/4/3 122/4/3
f 133/4/3 122/4/3 121/4/3
f 134/6/3 115/6/3 107/6/3
f 134/4/3 107/4/3 133/4/3
f 135/6/3 115/6/3 134/6/3
f 136/3/3 123/3/3 115/3/3
f 136/6/3 115/6/3 135/6/3
f 137/2/3 125/2/3 124/2/3
f 137/2/3 124/2/3 123/2/3
f 138/1/3 126/1/3 125/1/3
f 138/2/3 125/2/3 137/2/3
f 138/1/3 128/1/3 127/1/3
f 138/1/3 127/1/3 126/1/3
f 139/2/3 130/2/3 129/2/3
f 139/1/3 128/1/3 138/1/3
f 139/2/3 129/2/3 128/2/3
f 140/2/3 130/2/3 139/2/3
f 141/6/3 114/6/3 120/6/3
f 141/3/3 120/3/3 130/3/3
f 142/6/3 114/6/3 141/6/3
f 143/4/3 132/4/3 131/4/3
f 143/6/3 114/6/3 142/6/3
f 143/4/3 131/4/3 114/4/3
f 144/4/3 132/4/3 143/4/3
f 145/3/3 123/3/3 136/3/3
f 145/3/3 136/3/3 135/3/3
f 146/2/3 137/2/3 123/2/3
f 146/3/3 123/3/3 145/3/3
f 147/2/3 137/2/3 146/2/3
f 148/1/3 140/1/3 139/1/3
f 148/2/3 137/2/3 147/2/3
f 148/1/3 138/1/3 137/1/3
f 148/1/3 139/1/3 138/1/3
f 149/2/3 130/2/3 140/2/3
f 149/1/3 140/1/3 148/1/3
f 150/2/3 130/2/3 149/2/3
f 151/3/3 142/3/3 141/3/3
f 151/2/3 130/2/3 150/2/3
f 151/3/3 141/3/3 130/3/3
f 152/3/3 142/3/3 151/3/3
f 153/1/3 148/1/3 147/1/3
f 153/1/3 150/1/3 149/1/3
f 153/1/3 149/1/3 148/1/3
f 154/1/3 150/1/3 153/1/3
f 155/1/3 153/1/3 147/1/3
f 156/6/3 154/6/3 153/6/3
f 156/1/3 153/1/3 155/1/3
f 157/1/3 150/1/3 154/1/3
f 157/6/3 154/6/3 156/6/3
f 158/1/3 150/1/3 157/1/3
f 159/6/3 156/6/3 155/6/3
f 159/1/3 155/1/3 147/1/3
f 159/6/3 158/6/3 157/6/3
f 159/6/3 157/6/3 156/6/3
f 160/6/3 158/6/3 159/6/3
f 161/6/3 158/6/3 160/6/3
f 162/1/3 150/1/3 158/1/3
f 162/6/3 158/6/3 161/6/3
f 163/6/3 161/6/3 160/6/3
f 163/1/3 160/1/3 159/1/3
f 164/1/3 162/1/3 161/1/3
f 164/6/3 161/6/3 163/6/3
f 165/3/3 145/3/3 135/3/3
f 165/2/3 147/2/3 146/2/3
f 165/2/3 146/2/3 145/2/3
f 166/2/3 147/2/3 165/2/3
f 167/1/3 164/1/3 163/1/3
f 167/2/3 147/2/3 166/2/3
f 167/1/3 163/1/3 159/1/3
f 167/1/3 159/1/3 147/1/3
f 168/1/3 164/1/3 167/1/3
f 169/1/3 162/1/3 164/1/3
f 169/1/3 164/1/3 168/1/3
f 169/1/3 150/1/3 162/1/3
f 170/2/3 152/2/3 151/2/3
f 170/1/3 150/1/3 169/1/3
f 170/2/3 151/2/3 150/2/3
f 171/2/3 152/2/3 170/2/3
f 172/3/3 142/3/3 152/3/3
f 172/2/3 152/2/3 171/2/3
f 173/4/3 133/4/3 121/4/3
f 173/6/3 135/6/3 134/6/3
f 173/6/3 134/6/3 133/6/3
f 174/6/3 135/6/3 173/6/3
f 175/3/3 166/3/3 165/3/3
f 175/6/3 135/6/3 174/6/3
f 175/3/3 165/3/3 135/3/3
f 176/3/3 166/3/3 175/3/3
f 177/2/3 168/2/3 167/2/3
f 177/1/3 169/1/3 168/1/3
f 177/2/3 167/2/3 166/2/3
f 178/1/3 169/1/3 177/1/3
f 179/1/3 169/1/3 178/1/3
f 180/2/3 171/2/3 170/2/3
f 180/1/3 169/1/3 179/1/3
f 180/2/3 170/2/3 169/2/3
f 181/3/3 142/3/3 172/3/3
f 181/3/3 172/3/3 171/3/3
f 182/6/3 144/6/3 143/6/3
f 182/3/3 142/3/3 181/3/3
f 182/6/3 143/6/3 142/6/3
f 183/6/3 144/6/3 182/6/3
f 184/4/3 132/4/3 144/4/3
f 184/6/3 144/6/3 183/6/3
f 185/4/3 174/4/3 173/4/3
f 185/4/3 173/4/3 121/4/3
f 185/5/3 121/5/3 9/5/3
f 186/4/3 174/4/3 185/4/3
f 187/3/3 166/3/3 176/3/3
f 187/2/3 178/2/3 177/2/3
f 187/2/3 177/2/3 166/2/3
f 188/2/3 178/2/3 187/2/3
f 189/1/3 179/1/3 178/1/3
f 189/2/3 178/2/3 188/2/3
f 190/1/3 179/1/3 189/1/3
f 191/1/3 179/1/3 190/1/3
f 192/2/3 180/2/3 179/2/3
f 192/1/3 179/1/3 191/1/3
f 193/2/3 171/2/3 180/2/3
f 193/2/3 180/2/3 192/2/3
f 194/3/3 181/3/3 171/3/3
f 194/2/3 171/2/3 193/2/3
f 195/4/3 132/4/3 184/4/3
f 195/4/3 184/4/3 183/4/3
f 196/5/3 10/5/3 132/5/3
f 196/4/3 132/4/3 195/4/3
f 197/3/3 188/3/3 187/3/3
f 197/6/3 176/6/3 175/6/3
f 197/6/3 175/6/3 174/6/3
f 197/3/3 187/3/3 176/3/3
f 198/3/3 188/3/3 197/3/3
f 199/1/3 191/1/3 190/1/3
f 199/2/3 190/2/3 189/2/3
f 199/2/3 189/2/3 188/2/3
f 200/2/3 192/2/3 191/2/3
f 200/1/3 191/1/3 199/1/3
f 200/2/3 193/2/3 192/2/3
f 201/3/3 181/3/3 194/3/3
f 201/3/3 194/3/3 193/3/3
f 202/6/3 183/6/3 182/6/3
f 202/3/3 181/3/3 201/3/3
f 202/6/3 182/6/3 181/6/3
f 203/4/3 174/4/3 186/4/3
f 203/6/3 198/6/3 197/6/3
f 203/6/3 197/6/3 174/6/3
f 204/6/3 198/6/3 203/6/3
f 205/2/3 199/2/3 188/2/3
f 205/2/3 200/2/3 199/2/3
f 205/3/3 188/3/3 198/3/3
f 206/2/3 200/2/3 205/2/3
f 207/2/3 193/2/3 200/2/3
f 207/2/3 200/2/3 206/2/3
f 208/3/3 201/3/3 193/3/3
f 208/2/3 193/2/3 207/2/3
f 209/6/3 183/6/3 202/6/3
f 209/6/3 202/6/3 201/6/3
f 210/4/3 195/4/3 183/4/3
f 210/6/3 183/6/3 209/6/3
f 211/4/3 204/4/3 203/4/3
f 211/4/3 203/4/3 186/4/3
f 211/5/3 186/5/3 185/5/3
f 212/4/3 204/4/3 211/4/3
f 213/3/3 206/3/3 205/3/3
f 213/6/3 198/6/3 204/6/3
f 213/3/3 205/3/3 198/3/3
f 214/3/3 206/3/3 213/3/3
f 215/2/3 207/2/3 206/2/3
f 215/3/3 206/3/3 214/3/3
f 216/2/3 207/2/3 215/2/3
f 217/2/3 207/2/3 216/2/3
f 218/3/3 208/3/3 207/3/3
f 218/2/3 207/2/3 217/2/3
f 219/3/3 201/3/3 208/3/3
f 219/3/3 208/3/3 218/3/3
f 220/6/3 209/6/3 201/6/3
f 220/3/3 201/3/3 219/3/3
f 221/4/3 195/4/3 210/4/3
f 221/4/3 210/4/3 209/4/3
f 222/5/3 196/5/3 195/5/3
f 222/4/3 195/4/3 221/4/3
f 223/4/3 204/4/3 212/4/3
f 223/6/3 214/6/3 213/6/3
f 223/6/3 213/6/3 204/6/3
f 224/6/3 214/6/3 223/6/3
f 225/3/3 216/3/3 215/3/3
f 225/6/3 214/6/3 224/6/3
f 225/3/3 215/3/3 214/3/3
f 226/3/3 216/3/3 225/3/3
f 227/2/3 217/2/3 216/2/3
f 227/3/3 216/3/3 226/3/3
f 228/3/3 218/3/3 217/3/3
f 228/2/3 217/2/3 227/2/3
f 228/3/3 219/3/3 218/3/3
f 229/3/3 219/3/3 228/3/3
f 230/6/3 220/6/3 219/6/3
f 230/3/3 219/3/3 229/3/3
f 231/6/3 209/6/3 220/6/3
f 231/6/3 220/6/3 230/6/3
f 232/4/3 221/4/3 209/4/3
f 232/6/3 209/6/3 231/6/3
f 233/5/3 212/5/3 211/5/3
f 233/4/3 224/4/3 223/4/3
f 233/4/3 223/4/3 212/4/3
f 234/4/3 224/4/3 233/4/3
f 235/6/3 225/6/3 224/6/3
f 235/4/3 224/4/3 234/4/3
f 235/6/3 226/6/3 225/6/3
f 236/6/3 226/6/3 235/6/3
f 237/3/3 227/3/3 226/3/3
f 237/6/3 226/6/3 236/6/3
f 237/3/3 229/3/3 228/3/3
f 237/3/3 228/3/3 227/3/3
f 238/3/3 229/3/3 237/3/3
f 239/3/3 229/3/3 238/3/3
f 240/6/3 230/6/3 229/6/3
f 240/3/3 229/3/3 239/3/3
f 240/6/3 231/6/3 230/6/3
f 241/6/3 231/6/3 240/6/3
f 242/4/3 232/4/3 231/4/3
f 242/6/3 231/6/3 241/6/3
f 243/4/3 221/4/3 232/4/3
f 243/4/3 232/4/3 242/4/3
f 244/5/3 222/5/3 221/5/3
f 244/4/3 221/4/3 243/4/3
f 245/4/3 236/4/3 235/4/3
f 245/5/3 234/5/3 233/5/3
f 245/4/3 235/4/3 234/4/3
f 246/4/3 236/4/3 245/4/3
f 247/6/3 238/6/3 237/6/3
f 247/4/3 236/4/3 246/4/3
f 247/6/3 237/6/3 236/6/3
f 248/6/3 238/6/3 247/6/3
f 249/3/3 239/3/3 238/3/3
f 249/6/3 238/6/3 248/6/3
f 250/3/3 239/3/3 249/3/3
f 251/3/3 239/3/3 250/3/3
f 252/6/3 240/6/3 239/6/3
f 252/3/3 239/3/3 251/3/3
f 252/6/3 241/6/3 240/6/3
f 253/6/3 241/6/3 252/6/3
f 254/4/3 242/4/3 241/4/3
f 254/6/3 241/6/3 253/6/3
f 254/4/3 243/4/3 242/4/3
f 255/4/3 243/4/3 254/4/3
f 256/5/3 244/5/3 243/5/3
f 256/4/3 243/4/3 255/4/3
f 257/4/3 248/4/3 247/4/3
f 257/6/3 250/6/3 249/6/3
f 257/4/3 247/4/3 246/4/3
f 257/6/3 249/6/3 248/6/3
f 258/6/3 250/6/3 257/6/3
f 259/3/3 251/3/3 250/3/3
f 259/6/3 250/6/3 258/6/3
f 260/3/3 251/3/3 259/3/3
f 261/3/3 251/3/3 260/3/3
f 262/6/3 253/6/3 252/6/3
f 262/3/3 251/3/3 261/3/3
f 262/6/3 252/6/3 251/6/3
f 263/6/3 253/6/3 262/6/3
f 264/4/3 255/4/3 254/4/3
f 264/6/3 253/6/3 263/6/3
f 264/4/3 254/4/3 253/4/3
f 265/5/3 246/5/3 245/5/3
f 265/4/3 258/4/3 257/4/3
f 265/4/3 257/4/3 246/4/3
f 266/4/3 258/4/3 265/4/3
f 267/6/3 260/6/3 259/6/3
f 267/4/3 258/4/3 266/4/3
f 267/6/3 259/6/3 258/6/3
f 268/6/3 260/6/3 267/6/3
f 269/3/3 261/3/3 260/3/3
f 269/6/3 260/6/3 268/6/3
f 270/6/3 263/6/3 262/6/3
f 270/3/3 261/3/3 269/3/3
f 270/6/3 262/6/3 261/6/3
f 271/6/3 263/6/3 270/6/3
f 272/4/3 264/4/3 263/4/3
f 272/6/3 263/6/3 271/6/3
f 273/4/3 255/4/3 264/4/3
f 273/4/3 264/4/3 272/4/3
f 274/5/3 256/5/3 255/5/3
f 274/4/3 255/4/3 273/4/3
f 275/4/3 268/4/3 267/4/3
f 275/5/3 266/5/3 265/5/3
f 275/4/3 267/4/3 266/4/3
f 276/4/3 268/4/3 275/4/3
f 277/6/3 269/6/3 268/6/3
f 277/4/3 268/4/3 276/4/3
f 277/6/3 271/6/3 270/6/3
f 277/6/3 270/6/3 269/6/3
f 278/6/3 271/6/3 277/6/3
f 279/6/3 271/6/3 278/6/3
f 280/4/3 272/4/3 271/4/3
f 280/6/3 271/6/3 279/6/3
f 280/4/3 273/4/3 272/4/3
f 281/4/3 273/4/3 280/4/3
f 282/5/3 274/5/3 273/5/3
f 282/4/3 273/4/3 281/4/3
f 283/5/3 276/5/3 275/5/3
f 283/4/3 278/4/3 277/4/3
f 283/4/3 277/4/3 276/4/3
f 284/4/3 278/4/3 283/4/3
f 285/6/3 279/6/3 278/6/3
f 285/4/3 278/4/3 284/4/3
f 286/6/3 279/6/3 285/6/3
f 287/6/3 279/6/3 286/6/3
f 288/4/3 281/4/3 280/4/3
f 288/6/3 279/6/3 287/6/3
f 288/4/3 280/4/3 279/4/3
f 289/4/3 281/4/3 288/4/3
f 290/5/3 282/5/3 281/5/3
f 290/4/3 281/4/3 289/4/3
f 291/5/3 284/5/3 283/5/3
f 291/4/3 286/4/3 285/4/3
f 291/4/3 285/4/3 284/4/3
f 292/4/3 286/4/3 291/4/3
f 293/6/3 287/6/3 286/6/3
f 293/4/3 286/4/3 292/4/3
f 294/4/3 289/4/3 288/4/3
f 294/6/3 287/6/3 293/6/3
f 294/4/3 288/4/3 287/4/3
f 295/4/3 289/4/3 294/4/3
f 296/5/3 290/5/3 289/5/3
f 296/4/3 289/4/3 295/4/3
f 297/5/3 292/5/3 291/5/3
f 297/4/3 293/4/3 292/4/3
f 297/4/3 295/4/3 294/4/3
f 297/4/3 294/4/3 293/4/3
f 298/4/3 295/4/3 297/4/3
f 299/4/3 295/4/3 298/4/3
f 300/5/3 296/5/3 295/5/3
f 300/4/3 295/4/3 299/4/3
f 301/4/3 299/4/3 298/4/3
f 301/5/3 298/5/3 297/5/3
f 302/4/3 299/4/3 301/4/3
f 303/4/3 299/4/3 302/4/3
f 304/5/3 300/5/3 299/5/3
f 304/4/3 299/4/3 303/4/3
f 305/4/3 303/4/3 302/4/3
f 305/5/3 302/5/3 301/5/3
f 306/5/3 304/5/3 303/5/3
f 306/4/3 303/4/3 305/4/3
f 307/5/3 185/5/3 9/5/3
f 307/5/3 275/5/3 265/5/3
f 307/5/3 306/5/3 305/5/3
f 307/5/3 305/5/3 301/5/3
f 307/5/3 301/5/3 297/5/3
f 307/5/3 211/5/3 185/5/3
f 307/5/3 297/5/3 291/5/3
f 307/5/3 283/5/3 275/5/3
f 307/5/3 291/5/3 283/5/3
f 307/5/3 265/5/3 245/5/3
f 307/5/3 245/5/3 233/5/3
f 307/5/3 233/5/3 211/5/3
f 308/5/3 222/5/3 244/5/3
f 308/5/3 306/5/3 307/5/3
f 308/5/3 10/5/3 196/5/3
f 308/5/3 296/5/3 300/5/3
f 308/5/3 300/5/3 304/5/3
f 308/5/3 304/5/3 306/5/3
f 308/5/3 282/5/3 290/5/3
f 308/5/3 290/5/3 296/5/3
f 308/5/3 244/5/3 256/5/3
f 308/5/3 256/5/3 274/5/3
f 308/5/3 274/5/3 282/5/3
f 308/5/3 196/5/3 222/5/3
f 309/5/4 310/5/4 311/5/4
f 311/5/4 310/5/4 312/5/4
f 315/5/5 314/5/5 313/5/5
f 316/5/5 314/5/5 315/5/5
f 317/5/6 318/5/6 319/5/6
f 319/5/6 318/5/6 320/5/6
